#!OML:ASF I:\golf\golf\golf 2\Subject 1\2002-09-07\Subject1.ASF
:FULLY-SPECIFIED
:DEGREES
211
root -7.43004 17.5551 2.86141 -6.53252 64.2989 -21.761
lowerback 2.497 -0.236727 -10.3012
upperback 3.35905 -0.391578 1.15563
thorax 2.20328 -0.435895 7.00986
lowerneck -12.6786 7.8666 3.00893
upperneck 36.5148 14.5297 -5.71294
head 15.728 6.07158 -0.371214
rclavicle -1.43125e-014 3.18055e-015
rhumerus -10.9357 -0.350802 -102.122
rradius 45.7975
rwrist -62.7473
rhand -45.1362 -13.1117
rfingers 7.12502
rthumb -17.9147 -42.3065
lclavicle -1.43125e-014 3.18055e-015
lhumerus 44.1299 -77.7441 53.4411
lradius 25.6343
lwrist 27.5374
lhand 15.1055 50.5731
lfingers 7.12502
lthumb -140.049 255.814
rfemur -36.1773 5.18339 19.9872
rtibia 32.8204
rfoot -9.27482 11.1888
rtoes 2.98033
lfemur -18.8503 17.0363 0.782144
ltibia 32.9782
lfoot -13.1831 10.8299
ltoes -28.3263
212
root -7.43128 17.5637 2.90802 -6.24242 63.3273 -21.4742
lowerback 2.32008 -0.557763 -10.6742
upperback 3.36341 -0.797695 0.962583
thorax 2.39534 -0.65519 7.01455
lowerneck -12.3763 8.41691 3.22381
upperneck 36.0283 15.2782 -5.93817
head 15.5142 6.39506 -0.388053
rclavicle 1.43125e-014 -3.18055e-015
rhumerus -11.2179 0.0844217 -101.777
rradius 47.1612
rwrist -63.4268
rhand -46.4415 -10.8037
rfingers 7.12502
rthumb -19.1702 -39.8789
lclavicle 1.43125e-014 -3.18055e-015
lhumerus 50.4196 -77.8488 47.28
lradius 25.9375
lwrist 27.0086
lhand 14.2639 49.2359
lfingers 7.12502
lthumb -140.842 254.71
rfemur -36.1663 5.57074 20.3806
rtibia 32.7583
rfoot -9.12148 11.8919
rtoes 3.85574
lfemur -18.5869 17.5233 1.12083
ltibia 33.1488
lfoot -13.0481 11.1378
ltoes -26.3106
213
root -7.43486 17.5616 2.95549 -6.09573 62.3153 -21.4057
lowerback 2.14052 -0.899949 -10.9783
upperback 3.29712 -1.2355 0.823529
thorax 2.52213 -0.883608 7.03373
lowerneck -12.0183 8.97366 3.36789
upperneck 35.6002 16.0533 -6.1198
head 15.3132 6.72996 -0.373907
rclavicle -2.70347e-014 4.92986e-014
rhumerus -11.5107 0.192984 -101.408
rradius 48.6264
rwrist -63.9604
rhand -47.9481 -8.70801
rfingers 7.12502
rthumb -20.6186 -37.6329
lclavicle -2.70347e-014 4.92986e-014
lhumerus 53.804 -77.5536 44.1272
lradius 26.1288
lwrist 25.9729
lhand 13.6009 48.4288
lfingers 7.12502
lthumb -141.467 254.081
rfemur -36.208 5.87609 20.9252
rtibia 32.6703
rfoot -8.92579 12.6933
rtoes 5.05347
lfemur -18.2354 17.8708 1.62652
ltibia 33.3704
lfoot -13.0642 11.4168
ltoes -24.0445
214
root -7.44573 17.545 3.00306 -6.67642 61.4645 -22.1374
lowerback 2.06477 -1.30606 -10.924
upperback 3.22742 -1.77213 0.815177
thorax 2.59814 -1.15211 6.98618
lowerneck -11.7425 9.54365 3.36521
upperneck 35.2866 16.8608 -6.17576
head 15.1625 7.07088 -0.275248
rclavicle 3.26007e-014 -3.97569e-014
rhumerus -11.6105 -0.569153 -101.082
rradius 49.9871
rwrist -63.2347
rhand -48.7171 -8.96275
rfingers 7.12502
rthumb -21.3573 -37.8058
lclavicle 3.26007e-014 -3.97569e-014
lhumerus 53.1962 -76.9839 45.4043
lradius 25.9227
lwrist 24.0754
lhand 12.9601 47.3449
lfingers 7.12502
lthumb -142.072 253.164
rfemur -36.2219 6.20624 21.7958
rtibia 32.5647
rfoot -8.73884 13.2774
rtoes 5.78627
lfemur -17.856 17.8916 2.61744
ltibia 33.6297
lfoot -13.3209 11.4601
ltoes -22.4556
215
root -7.44966 17.5317 3.05301 -7.91457 60.5131 -23.2871
lowerback 2.13089 -1.64476 -10.6015
upperback 3.31616 -2.22455 0.836188
thorax 2.73098 -1.38106 6.81817
lowerneck -11.5438 10.1245 3.51419
upperneck 34.9406 17.6625 -6.30616
head 15.0428 7.41714 -0.227007
rclavicle -1.19271e-014 -3.02153e-014
rhumerus -11.6169 -1.21494 -100.791
rradius 51.7044
rwrist -63.2766
rhand -49.5959 -9.18557
rfingers 7.12502
rthumb -22.2012 -37.9306
lclavicle -1.19271e-014 -3.02153e-014
lhumerus 52.9012 -76.4137 46.3437
lradius 25.7058
lwrist 22.1936
lhand 12.4987 45.5989
lfingers 7.12502
lthumb -142.508 251.535
rfemur -35.86 6.84973 22.8707
rtibia 32.5011
rfoot -8.60344 13.6018
rtoes 6.75322
lfemur -17.1785 18.1103 3.92656
ltibia 33.8534
lfoot -13.2463 11.6223
ltoes -23.1564
216
root -7.43159 17.5308 3.0928 -8.39115 59.3718 -23.3451
lowerback 2.16628 -1.84394 -10.5068
upperback 3.47871 -2.47603 0.601919
thorax 2.91608 -1.51443 6.50812
lowerneck -11.2634 10.6328 3.90154
upperneck 34.5813 18.3173 -6.49867
head 14.9274 7.72906 -0.270593
rclavicle 5.40694e-014 1.59028e-014
rhumerus -11.6961 -1.37603 -100.375
rradius 53.448
rwrist -63.4419
rhand -50.5061 -8.97808
rfingers 7.12502
rthumb -23.0747 -37.6165
lclavicle 5.40694e-014 1.59028e-014
lhumerus 56.1749 -76.2386 43.418
lradius 25.7389
lwrist 21.3608
lhand 13.0051 44.481
lfingers 7.12502
lthumb -142.029 250.288
rfemur -35.2438 7.28933 23.5298
rtibia 32.4682
rfoot -8.32533 14.3189
rtoes 8.63209
lfemur -16.1407 18.5506 4.59739
ltibia 34.0272
lfoot -12.6451 12.291
ltoes -26.1386
217
root -7.41573 17.5341 3.12451 -7.40906 58.4035 -22.0077
lowerback 2.0498 -2.08254 -11.1206
upperback 3.52134 -2.76402 0.171591
thorax 3.09806 -1.6753 6.38378
lowerneck -10.9504 11.1221 4.2233
upperneck 34.2262 18.9511 -6.65876
head 14.7988 8.03095 -0.297018
rclavicle -4.77083e-014 1.59028e-014
rhumerus -11.7268 -1.45437 -99.9968
rradius 54.953
rwrist -63.0574
rhand -51.7337 -7.38826
rfingers 7.12502
rthumb -24.2522 -35.8745
lclavicle -4.77083e-014 1.59028e-014
lhumerus 62.7641 -76.1512 37.2026
lradius 25.8004
lwrist 21.6343
lhand 14.335 44.1912
lfingers 7.12502
lthumb -140.775 249.646
rfemur -34.9625 7.28562 23.4244
rtibia 32.422
rfoot -8.06502 15.419
rtoes 10.0033
lfemur -15.3009 18.6334 4.34507
ltibia 34.202
lfoot -12.4003 12.9008
ltoes -27.6099
218
root -7.41559 17.5332 3.16731 -6.71939 57.4863 -21.1518
lowerback 1.95316 -2.39333 -11.7747
upperback 3.49612 -3.1572 -0.102683
thorax 3.23246 -1.88831 6.44293
lowerneck -10.6924 11.6552 4.36296
upperneck 33.8426 19.6696 -6.77288
head 14.6523 8.35203 -0.260446
rclavicle -1.07344e-013 9.54166e-015
rhumerus -11.6702 -1.87391 -99.763
rradius 56.2862
rwrist -61.9063
rhand -53.0658 -6.71567
rfingers 7.12502
rthumb -25.5288 -35.0253
lclavicle -1.07344e-013 9.54166e-015
lhumerus 66.6275 -75.583 33.9459
lradius 25.6713
lwrist 20.9473
lhand 14.2271 42.3481
lfingers 7.12502
lthumb -140.876 247.833
rfemur -34.8592 7.50354 23.4969
rtibia 32.3982
rfoot -7.8948 16.1921
rtoes 10.851
lfemur -14.624 18.65 4.41561
ltibia 34.3793
lfoot -12.5339 13.0854
ltoes -27.029
219
root -7.42009 17.5296 3.22592 -7.3663 56.4454 -21.6303
lowerback 2.02892 -2.66445 -11.8304
upperback 3.55043 -3.52154 -0.166609
thorax 3.32114 -2.07664 6.39513
lowerneck -10.5156 12.1805 4.41682
upperneck 33.4413 20.3628 -6.82047
head 14.4958 8.65917 -0.185982
rclavicle -1.09729e-013 -3.81667e-014
rhumerus -11.7034 -1.92023 -99.5164
rradius 57.9225
rwrist -62.0633
rhand -54.6612 -4.13366
rfingers 7.12502
rthumb -27.056 -32.2154
lclavicle -1.09729e-013 -3.81667e-014
lhumerus 66.9376 -74.7481 34.3679
lradius 25.4495
lwrist 18.9323
lhand 13.7795 40.0494
lfingers 7.12502
lthumb -141.298 245.654
rfemur -34.4809 8.05372 24.3772
rtibia 32.4017
rfoot -7.7424 16.5253
rtoes 11.6899
lfemur -13.8344 19.1178 5.42407
ltibia 34.5868
lfoot -12.1971 13.1189
ltoes -27.5457
220
root -7.42052 17.5262 3.28228 -7.91328 55.5169 -21.9535
lowerback 2.10984 -2.93596 -11.9649
upperback 3.6511 -3.88341 -0.22177
thorax 3.46329 -2.27084 6.39805
lowerneck -10.3792 12.6532 4.47137
upperneck 33.012 21.0036 -6.96208
head 14.3488 8.93395 -0.154242
rclavicle 5.56597e-015 3.49861e-014
rhumerus -11.5699 -2.25793 -99.0454
rradius 59.5001
rwrist -61.4692
rhand -55.1547 -4.39377
rfingers 7.12502
rthumb -27.5281 -32.4012
lclavicle 5.56597e-015 3.49861e-014
lhumerus 67.9462 -73.9028 34.1231
lradius 25.359
lwrist 17.4459
lhand 16.0934 40.1882
lfingers 7.12502
lthumb -139.12 245.143
rfemur -34.0268 8.53416 25.1334
rtibia 32.3996
rfoot -7.70418 16.815
rtoes 12.5146
lfemur -13.014 19.4555 6.35953
ltibia 34.8112
lfoot -11.9087 12.9256
ltoes -28.0869
221
root -7.41753 17.5238 3.33033 -7.99011 54.7644 -21.8559
lowerback 2.13693 -3.28702 -12.3167
upperback 3.6582 -4.34984 -0.308987
thorax 3.57596 -2.51707 6.48162
lowerneck -10.083 13.1068 4.56354
upperneck 32.5535 21.6512 -7.22557
head 14.183 9.21321 -0.185277
rclavicle 1.08139e-013 -5.08889e-014
rhumerus -11.3947 -2.62503 -98.5152
rradius 60.8992
rwrist -60.5102
rhand -55.4138 -5.34675
rfingers 7.12502
rthumb -27.7759 -33.3145
lclavicle 1.08139e-013 -5.08889e-014
lhumerus 69.3505 -73.1521 33.489
lradius 25.2872
lwrist 16.5627
lhand 14.3817 37.1594
lfingers 7.12502
lthumb -140.731 242.602
rfemur -33.6426 8.85994 25.5425
rtibia 32.2697
rfoot -7.54489 17.212
rtoes 13.8183
lfemur -12.4002 19.6572 6.93448
ltibia 35.1702
lfoot -11.7281 12.5579
ltoes -28.5548
222
root -7.42547 17.5201 3.41605 -8.3313 53.4167 -21.6779
lowerback 2.24172 -3.35578 -13.1846
upperback 3.71858 -4.44915 -0.364896
thorax 3.68058 -2.59929 6.9015
lowerneck -9.63665 13.5239 4.78497
upperneck 32.0759 22.2043 -7.45874
head 13.9858 9.48214 -0.252498
rclavicle 3.65764e-014 -2.22639e-014
rhumerus -11.3482 -2.95547 -98.1223
rradius 62.3863
rwrist -59.9039
rhand -56.2304 -3.52205
rfingers 7.12502
rthumb -28.5564 -31.3612
lclavicle 3.65764e-014 -2.22639e-014
lhumerus 71.9287 -72.6655 31.4988
lradius 25.3738
lwrist 15.9136
lhand 21.5743 40.5159
lfingers 7.12502
lthumb -134.001 243.611
rfemur -32.785 9.84118 26.1879
rtibia 32.1401
rfoot -7.24521 17.5373
rtoes 15.6826
lfemur -11.031 20.7892 7.96778
ltibia 35.4538
lfoot -11.104 12.0349
ltoes -30.2966
223
root -7.41675 17.5313 3.43717 -8.56822 53.4062 -22.1462
lowerback 2.37599 -3.933 -12.5672
upperback 3.53355 -5.24191 -0.605937
thorax 3.48961 -2.94877 6.2853
lowerneck -9.16652 13.9102 5.1296
upperneck 31.5761 22.7153 -7.77764
head 13.8069 9.73946 -0.376037
rclavicle -3.73715e-014 -4.77083e-014
rhumerus -11.3571 -3.42467 -97.8328
rradius 64.0409
rwrist -59.1438
rhand -57.059 -1.28631
rfingers 7.12502
rthumb -29.3478 -28.9897
lclavicle -3.73715e-014 -4.77083e-014
lhumerus 74.6019 -72.2217 29.3764
lradius 25.6209
lwrist 15.3318
lhand 10.5487 35.2811
lfingers 7.12502
lthumb -144.353 241.684
rfemur -32.7896 9.12768 26.7567
rtibia 31.9776
rfoot -6.82291 18.2065
rtoes 17.3588
lfemur -11.4162 20.4927 8.34114
ltibia 35.7706
lfoot -10.3025 12.0524
ltoes -31.2965
224
root -7.41483 17.5375 3.49741 -8.75706 52.6098 -21.9574
lowerback 2.56014 -4.21072 -13.0382
upperback 3.54059 -5.63436 -0.714104
thorax 3.51659 -3.15526 6.42265
lowerneck -8.71509 14.3278 5.3397
upperneck 31.0264 23.3214 -8.18702
head 13.6224 10.0154 -0.495596
rclavicle 3.4191e-014 -3.18055e-014
rhumerus -11.295 -3.61674 -97.4124
rradius 65.6709
rwrist -58.0871
rhand -57.9172 -0.673271
rfingers 7.12502
rthumb -30.1669 -28.2302
lclavicle 3.4191e-014 -3.18055e-014
lhumerus 73.6535 -71.5148 31.3334
lradius 25.4721
lwrist 13.8015
lhand 10.0015 34.7508
lfingers 7.12502
lthumb -144.872 241.277
rfemur -32.1248 9.42924 27.1972
rtibia 31.834
rfoot -6.68277 18.5498
rtoes 18.017
lfemur -10.5322 20.6663 8.96833
ltibia 36.0191
lfoot -9.76569 11.8394
ltoes -32.1255
225
root -7.40736 17.5463 3.54498 -8.50421 52.0325 -21.3609
lowerback 2.68476 -4.52939 -13.6086
upperback 3.52751 -6.07074 -0.931712
thorax 3.56968 -3.38277 6.48979
lowerneck -8.22737 14.7307 5.52367
upperneck 30.2922 23.8805 -8.64316
head 13.3572 10.2781 -0.64329
rclavicle 7.15625e-015 2.8625e-014
rhumerus -11.0221 -3.86896 -96.9579
rradius 67.0811
rwrist -56.701
rhand -58.9328 0.3748
rfingers 7.12502
rthumb -31.1353 -27.0008
lclavicle 7.15625e-015 2.8625e-014
lhumerus 72.0039 -70.6644 34.1996
lradius 25.0456
lwrist 11.9543
lhand 9.05093 32.2294
lfingers 7.12502
lthumb -145.774 238.963
rfemur -31.6119 9.41505 27.2929
rtibia 31.6651
rfoot -6.26031 19.1977
rtoes 19.5926
lfemur -9.91071 20.5716 9.09151
ltibia 36.2913
lfoot -9.13873 11.7978
ltoes -33.1736
